<?xml version="1.0" encoding="UTF-8"?>
<svg id="root" xmlns="http://www.w3.org/2000/svg" version="1.1" viewBox="0 0 245.76 245.76">
  <g id="chest">
    <g id="background_monocolor" data-name="Background monocolor" display="none">
      <path d="M239.21,159.75c0-4.43,1.27-13.22-.74-16.19-1.65-2.44-6.31-2.86-9.32-3.93-8.75-2.78-17.5-5.56-26.26-8.34-1.22.92-2.13,2.26-3.19,3.68-1.14,1.53-2.42,3.18-3.68,4.91-3.26,4.49-6.96,9.2-9.57,12.76-8.14,10.81-16.29,21.61-24.43,32.42l30.57-3.16v-27.08l36.74-4.21v60.4l-133.31,19.33v-64.45l35.72-4.09c7.94-17.37,15.87-34.73,23.81-52.1h-38.03c-3.43-3.03-6.87-6.05-10.31-9.08-.82-.9-1.64-1.8-2.45-2.7,15.95-20.69,31.9-41.39,47.85-62.08.25-.25.49-.49.74-.74-38.36-.08-76.72-.16-115.08-.25-2.69,1.42-6.76,6.39-10.8,11.29-1.48,1.79-2.85,3.77-4.17,5.4-2.28,2.8-4.23,4.96-4.91,6.13-1.91,3.3-6.42,6.14-7.61,10.06-.08,5.64-.16,11.29-.25,16.93v17.67c8.01,11.37,16.03,22.74,24.05,34.11.08,23.72.16,47.44.25,71.16.82,2.32,10.78,8.05,13.25,9.82,8.67,6.3,17.34,12.6,26.01,18.89,3.4,2.43,6.88,6.4,11.29,7.61,4.34,1.19,9.95-.59,13.25-1.23,7.61-1.14,15.21-2.29,22.82-3.44,27.23-4.09,54.48-8.18,81.71-12.27,4.03-.77,12.53-1.8,20.37-2.94,7.15-1.05,13.79-2.14,15.21-4.42,1.46-2.33.49-13.62.49-17.42v-42.45ZM132.95,43.2l5.11,9.45h-14.96l-5.11-9.45h14.96ZM19.35,94.73c-.08-8.26-.16-16.52-.25-24.78,7.12-8.91,14.23-17.83,21.35-26.75h64.53c2.62,4.91,5.24,9.82,7.85,14.72-21.35-.08-42.7-.16-64.04-.25-9.81,12.35-19.63,24.7-29.45,37.05ZM79.76,226.99l-36.12-25.39v-54.96l36.12,17.17v63.17ZM84.7,124.22c-1.74,1.46-4.72,2.83-6.77,3.09l-.98.14-2.87-4.11c-1.59-2.25-2.95-4.13-3.09-4.19-.12-.02-.81,0-1.53.04-.71.09-1.47.11-1.67.11-.29-.03-.81.84-2.8,4.45-1.68,3.1-2.55,4.48-2.78,4.53-.74.14-3.56-.46-4.99-1-.79-.34-2-.96-2.69-1.43l-1.21-.86.88-5.02c.87-4.85.92-5.02.53-5.35-.19-.17-.82-.73-1.35-1.2-1.16-1.03-.6-1.06-6.42.64-2.99.84-4.42,1.19-4.6,1.11-.45-.24-2.25-2.77-2.79-3.92-.29-.67-.67-1.85-.87-2.91l-.34-1.8,4.1-2.91c2.24-1.59,4.13-2.92,4.17-2.97.03-.05.03-.69-.03-1.45-.05-.72-.09-1.56-.1-1.8,0-.41-.5-.72-4.45-2.88-2.65-1.44-4.47-2.55-4.51-2.75-.12-.66.3-3.33.76-4.55.51-1.39,1.37-3.05,2.06-3.86l.43-.52,5.01.88,5.05.87,1.2-1.36c.97-1.07,1.18-1.47,1.11-1.83-.04-.23-.69-2.42-1.4-4.87l-1.28-4.45.32-.42c.49-.62,2.49-2,3.75-2.6.67-.29,1.85-.67,2.9-.87l1.75-.33,2.83,4.12c2.85,4.03,2.96,4.17,3.52,4.15.32-.02,1.16-.06,1.88-.07.72-.01,1.35-.13,1.37-.22.06-.09,1.14-2.07,2.43-4.46,1.69-3.03,2.46-4.3,2.74-4.35.62-.12,3.5.39,4.67.82.65.24,1.85.82,2.68,1.4l1.51.97-.98,5.12-.87,5.05.57.46c.29.27.88.81,1.28,1.22.6.61.82.73,1.29.65.31-.06,2.53-.72,4.94-1.41,2.45-.7,4.49-1.25,4.57-1.22.7.27,2.74,3.41,3.39,5.18.17.45.39,1.42.5,2.25l.21,1.33-4.1,2.87c-2.24,1.59-4.13,2.96-4.16,3-.03.05-.05.61,0,1.25.08.63.11,1.44.1,1.8v.65s4.45,2.44,4.45,2.44c2.51,1.35,4.47,2.55,4.5,2.71.12.66-.33,3.42-.81,4.72-.26.78-.91,2.03-1.41,2.81l-.95,1.39-5.01-.88-5.01-.88-1.21,1.28c-1.11,1.18-1.21,1.32-1.1,1.9.07.35.69,2.58,1.37,4.96.69,2.38,1.22,4.38,1.2,4.46-.02.09-.43.49-.92.9ZM94.12,149.94c-1.16-.59-2.72-2.04-3.32-3.06l-.47-.76,1.56-2.44c2.28-3.58,2.13-3.27,1.68-4.4-.21-.49-.51-1-.57-1.11-.1-.1-1.6-.35-3.37-.54-1.77-.19-3.36-.46-3.5-.6-.49-.43-.87-3.8-.65-5.17l.2-1.09,1.19-.34c.65-.2,2.16-.53,3.37-.75l2.18-.41.46-1.22.42-1.21-1.59-2.05c-.9-1.12-1.89-2.35-2.21-2.74l-.57-.66.94-1.47c.83-1.37,2.71-3.18,3.38-3.3.12-.02,1.44.78,2.95,1.75,1.55.96,2.88,1.8,2.96,1.79.09.02.65-.2,1.24-.48l1.07-.52.37-3.42c.43-3.96.24-3.68,2.96-4.03,1.22-.19,2.14-.2,2.89-.06l1.09.24.19,1.02c.1.55.47,2.09.76,3.41l.57,2.4,1.16.39,1.16.39,2.07-1.68c1.12-.94,2.35-1.9,2.73-2.21l.67-.53,1.57,1.08c1.03.74,1.8,1.44,2.35,2.19l.85,1.09-1.12,1.79c-.62,1.01-1.45,2.37-1.86,3.02l-.75,1.19.53,1.11.53,1.11,3.46.36c3.22.37,3.42.37,3.58.82.59,1.63.73,3.7.34,5.27l-.17.84-1.25.23c-.66.12-2.21.46-3.41.76l-2.16.53-.36,1.12c-.21.61-.31,1.15-.29,1.27.06.11,1.02,1.34,2.13,2.75l2.05,2.56-.39.92c-.6,1.33-2.08,2.9-3.56,3.82-.4.24-.58.15-2.28-.95-1.01-.66-2.3-1.51-2.89-1.88l-1.06-.69-1.07.52c-.55.31-1.06.6-1.13.66-.02.09-.26,1.63-.45,3.44l-.35,3.3-.59.27c-.74.34-3.03.61-4.27.48-1.69-.21-1.59-.07-2.41-3.79l-.75-3.34-1.2-.38-1.24-.37-2.59,2.1c-1.44,1.16-2.67,2.12-2.75,2.13-.08.01-.53-.22-1.06-.49Z" fill="#323232" fill-rule="evenodd" stroke-width="0"/>
      <path d="M101.5,136.39c.87,1.17,2.21,2.09,3.49,2.46.81.25,1.21.22,2.73-.07,1.52-.29,1.9-.44,2.49-.91,1.06-.81,2.01-2.2,2.36-3.35.25-.82.24-1.3.07-2.64-.3-1.8-.58-2.44-1.72-3.56-1.45-1.47-3.33-2.04-5.43-1.65-1.29.24-1.58.38-2.54,1.08-1.27.97-2.02,2.12-2.42,3.65-.2.89-.23,1.38,0,2.55.23,1.25.34,1.59.98,2.44Z" fill="#323232" fill-rule="evenodd" stroke-width="0"/>
      <path d="M66.29,87.99c-2.76.56-4.67,1.77-6.25,4.13-2.15,3.19-2.36,6.79-.55,10.21,1.42,2.64,4.39,4.67,7.45,5.07,1.78.23,4.27-.24,5.77-1.08,2.84-1.63,4.62-4.18,5.06-7.26.96-6.73-4.85-12.31-11.48-11.06Z" fill="#323232" fill-rule="evenodd" stroke-width="0"/>
    </g>
    <path id="background" d="M239.21,159.75c0-4.43,1.27-13.22-.74-16.19-1.65-2.44-6.31-2.86-9.32-3.93-8.75-2.78-17.5-5.56-26.26-8.34-1.22.92-2.13,2.26-3.19,3.68-1.14,1.53-2.42,3.18-3.68,4.91-3.26,4.49-6.96,9.2-9.57,12.76-8.14,10.81-16.29,21.61-24.43,32.42l30.57-3.16v-27.08l36.74-4.21v60.4l-133.31,19.33v-64.45l35.72-4.09c7.94-17.37,15.87-34.73,23.81-52.1h-38.03c-3.43-3.03-6.87-6.05-10.31-9.08-.82-.9-1.64-1.8-2.45-2.7,15.95-20.69,31.9-41.39,47.85-62.08.25-.25.49-.49.74-.74-38.36-.08-76.72-.16-115.08-.25-2.69,1.42-6.76,6.39-10.8,11.29-1.48,1.79-2.85,3.77-4.17,5.4-2.28,2.8-4.23,4.96-4.91,6.13-1.91,3.3-6.42,6.14-7.61,10.06-.08,5.64-.16,11.29-.25,16.93v17.67c8.01,11.37,16.03,22.74,24.05,34.11.08,23.72.16,47.44.25,71.16.82,2.32,10.78,8.05,13.25,9.82,8.67,6.3,17.34,12.6,26.01,18.89,3.4,2.43,6.88,6.4,11.29,7.61,4.34,1.19,9.95-.59,13.25-1.23,7.61-1.14,15.21-2.29,22.82-3.44,27.23-4.09,54.48-8.18,81.71-12.27,4.03-.77,12.53-1.8,20.37-2.94,7.15-1.05,13.79-2.14,15.21-4.42,1.46-2.33.49-13.62.49-17.42v-42.45ZM132.95,43.2l5.11,9.45h-14.96l-5.11-9.45h14.96ZM79.76,226.99l-36.12-25.39v-54.96l36.12,17.17v63.17ZM48.8,57.67c-9.81,12.35-19.63,24.7-29.45,37.05-.08-8.26-.16-16.52-.25-24.78,7.12-8.91,14.23-17.83,21.35-26.75h64.53c2.62,4.91,5.24,9.82,7.85,14.72-21.35-.08-42.7-.16-64.04-.25Z" fill="#323232" fill-rule="evenodd" stroke-width="0"/>
    <g id="wrap" data-name="Chest">
      <path id="corner" data-name="Top corner" d="M40.45,43.2h64.53c2.62,4.91,5.24,9.82,7.85,14.72-21.35-.08-42.7-.16-64.04-.25-9.81,12.35-19.63,24.7-29.45,37.05-.08-8.26-.16-16.52-.25-24.78,7.12-8.91,14.23-17.83,21.35-26.75Z" fill="#956433" fill-rule="evenodd" stroke-width="0"/>
      <path id="side" d="M43.64,146.64l36.12,17.17v63.17l-36.12-25.39v-54.96Z" fill="#956433" fill-rule="evenodd" stroke-width="0"/>
      <path id="top" d="M117.99,43.2h14.96l5.11,9.45h-14.96l-5.11-9.45Z" fill="#956433" fill-rule="evenodd" stroke-width="0"/>
      <path id="front" d="M96.01,230.34v-64.45l35.72-4.09c-9,19.69-17.99,39.37-26.99,59.06,4.49.05,28.91,1.05,30.67-.49,8.87-11.77,17.74-23.53,26.6-35.3l30.57-3.16v-27.08l36.74-4.21v60.4l-133.31,19.33Z" fill="#956433" fill-rule="evenodd" stroke-width="0"/>
    </g>
  </g>
  <path id="thunderbolt" d="M189.15,2.95h14.48c-8.42,22.74-16.85,45.48-25.27,68.21,19.06.08,38.12.16,57.17.25-34.92,46.86-69.85,93.74-104.78,140.6h-12.51c17.17-37.13,34.35-74.27,51.53-111.4v-.49h-37.54c-2.74,0-5.27-.02-7.61,0-1.08.01-2.22-.03-3.19,0-.35.01-.68,0-.98,0-.11,0-.14,0-.25,0-.04,0-.11.02-.17.02-.03,0-.06,0-.08-.02-.7-.54-1.15-.83-1.72-1.47-.41-.46-1.08-.95-1.47-1.47v-.49c24.13-31.24,48.26-62.49,72.39-93.73Z" fill="#ebc22f" fill-rule="evenodd" stroke-width="0"/>
  <g id="gears">
    <path id="small" d="M127.25,128.84c-.17-.45-.37-.46-3.58-.82l-3.46-.36-.53-1.11-.53-1.11.75-1.19c.4-.64,1.24-2.01,1.86-3.02l1.12-1.79-.85-1.09c-.54-.75-1.32-1.45-2.35-2.19l-1.57-1.08-.67.53c-.38.31-1.62,1.27-2.73,2.21l-2.07,1.68-1.16-.39-1.16-.39-.57-2.4c-.29-1.32-.66-2.87-.76-3.41l-.19-1.02-1.09-.24c-.75-.14-1.68-.13-2.89.06-2.72.35-2.53.07-2.96,4.03l-.37,3.42-1.07.52c-.59.27-1.16.5-1.24.48-.08.01-1.41-.83-2.96-1.79-1.51-.97-2.83-1.77-2.95-1.75-.66.12-2.54,1.93-3.38,3.3l-.94,1.47.57.66c.31.39,1.31,1.61,2.21,2.74l1.59,2.05-.42,1.21-.46,1.22-2.18.41c-1.21.23-2.72.55-3.37.75l-1.19.34-.2,1.09c-.23,1.38.16,4.74.65,5.17.15.13,1.73.4,3.5.6,1.77.19,3.27.44,3.37.54.06.11.36.62.57,1.11.45,1.13.6.82-1.68,4.4l-1.56,2.44.47.76c.59,1.02,2.16,2.46,3.32,3.06.53.26.98.5,1.06.49.08-.01,1.31-.97,2.75-2.13l2.59-2.1,1.24.37,1.2.38.75,3.34c.82,3.73.71,3.59,2.41,3.79,1.24.13,3.53-.14,4.27-.48l.59-.27.35-3.3c.18-1.81.42-3.35.45-3.44.07-.05.58-.35,1.13-.66l1.07-.52,1.06.69c.59.37,1.88,1.22,2.89,1.88,1.7,1.1,1.88,1.18,2.28.95,1.48-.93,2.96-2.5,3.56-3.82l.39-.92-2.05-2.56c-1.11-1.41-2.07-2.64-2.13-2.75-.02-.12.08-.66.29-1.27l.36-1.12,2.16-.53c1.19-.31,2.75-.64,3.41-.76l1.25-.23.17-.84c.39-1.57.25-3.64-.34-5.27ZM112.57,134.51c-.35,1.16-1.3,2.55-2.36,3.35-.6.48-.97.63-2.49.91-1.52.29-1.92.32-2.73.07-1.28-.37-2.62-1.29-3.49-2.46-.64-.85-.75-1.19-.98-2.44-.22-1.17-.19-1.66,0-2.55.4-1.53,1.15-2.68,2.42-3.65.96-.71,1.25-.84,2.54-1.08,2.11-.4,3.99.18,5.43,1.65,1.14,1.12,1.42,1.75,1.72,3.56.17,1.34.18,1.83-.07,2.64Z" fill="#ccc" stroke-width="0"/>
    <path id="big" d="M97.05,85.24c-.66-1.78-2.7-4.91-3.39-5.18-.09-.02-2.12.52-4.57,1.22-2.41.7-4.63,1.36-4.94,1.41-.47.09-.69-.03-1.29-.65-.4-.41-.98-.95-1.28-1.22l-.57-.46.87-5.05.98-5.12-1.51-.97c-.83-.57-2.03-1.15-2.68-1.4-1.17-.43-4.05-.94-4.67-.82-.27.05-1.04,1.33-2.74,4.35-1.29,2.38-2.37,4.37-2.43,4.46-.02.09-.65.2-1.37.22-.72.01-1.56.05-1.88.07-.56.02-.67-.12-3.52-4.15l-2.83-4.12-1.75.33c-1.05.2-2.23.58-2.9.87-1.26.6-3.26,1.99-3.75,2.6l-.32.42,1.28,4.45c.7,2.46,1.35,4.64,1.4,4.87.07.35-.14.75-1.11,1.83l-1.2,1.36-5.05-.87-5.01-.88-.43.52c-.69.82-1.55,2.47-2.06,3.86-.46,1.22-.89,3.89-.76,4.55.04.2,1.86,1.31,4.51,2.75,3.96,2.17,4.46,2.48,4.45,2.88,0,.24.04,1.08.1,1.8.06.76.06,1.4.03,1.45-.03.05-1.92,1.37-4.17,2.97l-4.1,2.91.34,1.8c.2,1.05.58,2.24.87,2.91.54,1.15,2.34,3.68,2.79,3.92.18.09,1.61-.26,4.6-1.11,5.82-1.7,5.26-1.67,6.42-.64.53.47,1.16,1.03,1.35,1.2.39.33.34.5-.53,5.35l-.88,5.02,1.21.86c.69.48,1.9,1.1,2.69,1.43,1.43.54,4.25,1.14,4.99,1,.23-.04,1.11-1.42,2.78-4.53,1.99-3.61,2.51-4.47,2.8-4.45.2,0,.96-.02,1.67-.11.72-.05,1.4-.06,1.53-.04.13.06,1.49,1.94,3.09,4.19l2.87,4.11.98-.14c2.05-.26,5.02-1.63,6.77-3.09.49-.41.9-.82.92-.9.02-.09-.51-2.09-1.2-4.46-.69-2.38-1.31-4.61-1.37-4.96-.11-.59-.01-.72,1.1-1.9l1.21-1.28,5.01.88,5.01.88.95-1.39c.5-.78,1.15-2.04,1.41-2.81.48-1.3.93-4.06.81-4.72-.03-.16-1.99-1.36-4.5-2.71l-4.45-2.44v-.65c.01-.37-.02-1.17-.1-1.8-.04-.64-.02-1.21,0-1.25.03-.05,1.91-1.41,4.16-3l4.1-2.87-.21-1.33c-.11-.83-.34-1.8-.5-2.25ZM77.76,99.05c-.43,3.07-2.21,5.63-5.06,7.26-1.5.85-3.99,1.32-5.77,1.08-3.06-.39-6.02-2.43-7.45-5.07-1.81-3.42-1.6-7.02.55-10.21,1.58-2.36,3.49-3.57,6.25-4.13,6.63-1.25,12.43,4.33,11.48,11.06Z" fill="#ccc" stroke-width="0"/>
  </g>
</svg>